# This file uses centimeters as units for non-parametric coordinates.

mtllib maya_cylinder.mtl
g default
v 0.000000 0.000000 -1.000000
v 0.195090 0.000000 -0.980785
v 0.382683 0.000000 -0.923880
v 0.555570 0.000000 -0.831470
v 0.707107 0.000000 -0.707107
v 0.831470 0.000000 -0.555570
v 0.923880 0.000000 -0.382683
v 0.980785 0.000000 -0.195090
v 1.000000 0.000000 0.000000
v 0.980785 0.000000 0.195090
v 0.923880 0.000000 0.382683
v 0.831470 0.000000 0.555570
v 0.707107 0.000000 0.707107
v 0.555570 0.000000 0.831470
v 0.382683 0.000000 0.923880
v 0.195090 0.000000 0.980785
v 0.000000 0.000000 1.000000
v -0.195091 0.000000 0.980785
v -0.382684 0.000000 0.923879
v -0.555571 0.000000 0.831469
v -0.707107 0.000000 0.707106
v -0.831470 0.000000 0.555570
v -0.923880 0.000000 0.382683
v -0.980785 0.000000 0.195089
v -1.000000 0.000000 -0.000001
v -0.980785 0.000000 -0.195091
v -0.923879 0.000000 -0.382684
v -0.831469 0.000000 -0.555571
v -0.707106 0.000000 -0.707108
v -0.555569 0.000000 -0.831470
v -0.382682 0.000000 -0.923880
v -0.195089 0.000000 -0.980786
v 0.000001 2.000000 -0.735735
v 0.143536 2.000000 -0.721598
v 0.281555 2.000000 -0.679730
v 0.408754 2.000000 -0.611741
v 0.520244 2.000000 -0.520242
v 0.611742 2.000000 -0.408752
v 0.679731 2.000000 -0.281553
v 0.721599 2.000000 -0.143533
v 0.735735 2.000000 0.000001
v 0.721598 2.000000 0.143536
v 0.679730 2.000000 0.281555
v 0.611741 2.000000 0.408753
v 0.520243 2.000000 0.520243
v 0.408752 2.000000 0.611741
v 0.281554 2.000000 0.679730
v 0.143535 2.000000 0.721598
v 0.000001 2.000000 0.735735
v -0.143534 2.000000 0.721598
v -0.281553 2.000000 0.679731
v -0.408751 2.000000 0.611742
v -0.520242 2.000000 0.520244
v -0.611740 2.000000 0.408754
v -0.679729 2.000000 0.281555
v -0.721598 2.000000 0.143537
v -0.735735 2.000000 0.000003
v -0.721599 2.000000 -0.143532
v -0.679732 2.000000 -0.281550
v -0.611744 2.000000 -0.408749
v -0.520246 2.000000 -0.520240
v -0.408756 2.000000 -0.611739
v -0.281558 2.000000 -0.679729
v -0.143540 2.000000 -0.721597
vt 2.240672 -0.000043
vt 2.240671 0.999957
vt 2.124629 0.999957
vt 2.124630 -0.000043
vt 2.008586 0.999957
vt 2.008587 -0.000043
vt 1.892544 0.999957
vt 1.892545 -0.000043
vt 1.776502 0.999957
vt 1.776503 -0.000043
vt 1.660459 0.999957
vt 1.660460 -0.000043
vt 1.544417 0.999957
vt 1.544418 -0.000043
vt 1.428374 0.999957
vt 1.428375 -0.000043
vt 1.312332 0.999957
vt 1.312333 -0.000043
vt 1.196290 0.999958
vt 1.196290 -0.000043
vt 1.080248 0.999958
vt 1.080248 -0.000043
vt 0.964206 0.999958
vt 0.964206 -0.000043
vt 0.848163 0.999958
vt 0.848163 -0.000043
vt 0.732121 0.999958
vt 0.732121 -0.000043
vt 0.616079 0.999958
vt 0.616079 -0.000043
vt 0.500037 0.999958
vt 0.500036 -0.000043
vt 0.383995 0.999958
vt 0.383994 -0.000043
vt 0.267953 0.999958
vt 0.267952 -0.000043
vt 0.151911 0.999958
vt 0.151909 -0.000043
vt 0.035868 0.999958
vt 0.035867 -0.000043
vt -0.080174 0.999958
vt -0.080175 -0.000043
vt -0.196216 0.999958
vt -0.196218 -0.000043
vt -0.312258 0.999958
vt -0.312260 -0.000043
vt -0.428300 0.999958
vt -0.428302 -0.000043
vt -0.544343 0.999958
vt -0.544345 -0.000043
vt -0.660385 0.999958
vt -0.660388 -0.000043
vt -0.776427 0.999957
vt -0.776430 -0.000043
vt -0.892469 0.999957
vt -0.892473 -0.000043
vt -1.008511 0.999957
vt -1.008515 -0.000043
vt -1.124553 0.999957
vt -1.124557 -0.000043
vt -1.240595 0.999957
vt -1.240600 -0.000043
vt -1.356637 0.999957
vt -1.356642 -0.000043
vt 2.356714 -0.000043
vt 2.356719 0.999957
vn 0.000000 0.000000 -1.000000
vn 0.000000 0.000000 -1.000000
vn 0.195077 0.000000 -0.980788
vn 0.000000 0.000000 -1.000000
vn 0.195077 0.000000 -0.980788
vn 0.195077 0.000000 -0.980788
vn 0.195077 0.000000 -0.980788
vn 0.195077 0.000000 -0.980788
vn 0.382682 0.000000 -0.923880
vn 0.195077 0.000000 -0.980788
vn 0.382682 0.000000 -0.923880
vn 0.382682 0.000000 -0.923880
vn 0.382682 0.000000 -0.923880
vn 0.382682 0.000000 -0.923880
vn 0.555573 0.000000 -0.831468
vn 0.382682 0.000000 -0.923880
vn 0.555573 0.000000 -0.831468
vn 0.555573 0.000000 -0.831468
vn 0.555573 0.000000 -0.831468
vn 0.555573 0.000000 -0.831468
vn 0.707107 0.000000 -0.707107
vn 0.555573 0.000000 -0.831468
vn 0.707107 0.000000 -0.707107
vn 0.707107 0.000000 -0.707107
vn 0.707107 0.000000 -0.707107
vn 0.707107 0.000000 -0.707107
vn 0.831468 0.000000 -0.555573
vn 0.707107 0.000000 -0.707107
vn 0.831468 0.000000 -0.555573
vn 0.831468 0.000000 -0.555573
vn 0.831468 0.000000 -0.555573
vn 0.831468 0.000000 -0.555573
vn 0.923880 0.000000 -0.382682
vn 0.831468 0.000000 -0.555573
vn 0.923880 0.000000 -0.382682
vn 0.923880 0.000000 -0.382682
vn 0.923880 0.000000 -0.382682
vn 0.923880 0.000000 -0.382682
vn 0.980788 0.000000 -0.195077
vn 0.923880 0.000000 -0.382682
vn 0.980788 0.000000 -0.195077
vn 0.980788 0.000000 -0.195077
vn 0.980788 0.000000 -0.195077
vn 0.980788 0.000000 -0.195077
vn 1.000000 0.000000 0.000000
vn 0.980788 0.000000 -0.195077
vn 1.000000 0.000000 0.000000
vn 1.000000 0.000000 0.000000
vn 1.000000 0.000000 0.000000
vn 1.000000 0.000000 0.000000
vn 0.980788 0.000000 0.195077
vn 1.000000 0.000000 0.000000
vn 0.980788 0.000000 0.195077
vn 0.980788 0.000000 0.195077
vn 0.980788 0.000000 0.195077
vn 0.980788 0.000000 0.195077
vn 0.923880 0.000000 0.382682
vn 0.980788 0.000000 0.195077
vn 0.923880 0.000000 0.382682
vn 0.923880 0.000000 0.382682
vn 0.923880 0.000000 0.382682
vn 0.923880 0.000000 0.382682
vn 0.831468 0.000000 0.555573
vn 0.923880 0.000000 0.382682
vn 0.831468 0.000000 0.555573
vn 0.831468 0.000000 0.555573
vn 0.831468 0.000000 0.555573
vn 0.831468 0.000000 0.555573
vn 0.707107 0.000000 0.707107
vn 0.831468 0.000000 0.555573
vn 0.707107 0.000000 0.707107
vn 0.707107 0.000000 0.707107
vn 0.707107 0.000000 0.707107
vn 0.707107 0.000000 0.707107
vn 0.555573 0.000000 0.831468
vn 0.707107 0.000000 0.707107
vn 0.555573 0.000000 0.831468
vn 0.555573 0.000000 0.831468
vn 0.555573 0.000000 0.831468
vn 0.555573 0.000000 0.831468
vn 0.382682 0.000000 0.923880
vn 0.555573 0.000000 0.831468
vn 0.382682 0.000000 0.923880
vn 0.382682 0.000000 0.923880
vn 0.382682 0.000000 0.923880
vn 0.382682 0.000000 0.923880
vn 0.195077 0.000000 0.980788
vn 0.382682 0.000000 0.923880
vn 0.195077 0.000000 0.980788
vn 0.195077 0.000000 0.980788
vn 0.195077 0.000000 0.980788
vn 0.195077 0.000000 0.980788
vn 0.000000 0.000000 1.000000
vn 0.195077 0.000000 0.980788
vn 0.000000 0.000000 1.000000
vn 0.000000 0.000000 1.000000
vn 0.000000 0.000000 1.000000
vn 0.000000 0.000000 1.000000
vn -0.195077 0.000000 0.980788
vn 0.000000 0.000000 1.000000
vn -0.195077 0.000000 0.980788
vn -0.195077 0.000000 0.980788
vn -0.195077 0.000000 0.980788
vn -0.195077 0.000000 0.980788
vn -0.382682 0.000000 0.923880
vn -0.195077 0.000000 0.980788
vn -0.382682 0.000000 0.923880
vn -0.382682 0.000000 0.923880
vn -0.382682 0.000000 0.923880
vn -0.382682 0.000000 0.923880
vn -0.555573 0.000000 0.831468
vn -0.382682 0.000000 0.923880
vn -0.555573 0.000000 0.831468
vn -0.555573 0.000000 0.831468
vn -0.555573 0.000000 0.831468
vn -0.555573 0.000000 0.831468
vn -0.707107 0.000000 0.707107
vn -0.555573 0.000000 0.831468
vn -0.707107 0.000000 0.707107
vn -0.707107 0.000000 0.707107
vn -0.707107 0.000000 0.707107
vn -0.707107 0.000000 0.707107
vn -0.831468 0.000000 0.555573
vn -0.707107 0.000000 0.707107
vn -0.831468 0.000000 0.555573
vn -0.831468 0.000000 0.555573
vn -0.831468 0.000000 0.555573
vn -0.831468 0.000000 0.555573
vn -0.923880 0.000000 0.382682
vn -0.831468 0.000000 0.555573
vn -0.923880 0.000000 0.382682
vn -0.923880 0.000000 0.382682
vn -0.923880 0.000000 0.382682
vn -0.923880 0.000000 0.382682
vn -0.980788 0.000000 0.195077
vn -0.923880 0.000000 0.382682
vn -0.980788 0.000000 0.195077
vn -0.980788 0.000000 0.195077
vn -0.980788 0.000000 0.195077
vn -0.980788 0.000000 0.195077
vn -1.000000 0.000000 0.000000
vn -0.980788 0.000000 0.195077
vn -1.000000 0.000000 0.000000
vn -1.000000 0.000000 0.000000
vn -1.000000 0.000000 0.000000
vn -1.000000 0.000000 0.000000
vn -0.980788 0.000000 -0.195077
vn -1.000000 0.000000 0.000000
vn -0.980788 0.000000 -0.195077
vn -0.980788 0.000000 -0.195077
vn -0.980788 0.000000 -0.195077
vn -0.980788 0.000000 -0.195077
vn -0.923880 0.000000 -0.382682
vn -0.980788 0.000000 -0.195077
vn -0.923880 0.000000 -0.382682
vn -0.923880 0.000000 -0.382682
vn -0.923880 0.000000 -0.382682
vn -0.923880 0.000000 -0.382682
vn -0.831468 0.000000 -0.555573
vn -0.923880 0.000000 -0.382682
vn -0.831468 0.000000 -0.555573
vn -0.831468 0.000000 -0.555573
vn -0.831468 0.000000 -0.555573
vn -0.831468 0.000000 -0.555573
vn -0.707107 0.000000 -0.707107
vn -0.831468 0.000000 -0.555573
vn -0.707107 0.000000 -0.707107
vn -0.707107 0.000000 -0.707107
vn -0.707107 0.000000 -0.707107
vn -0.707107 0.000000 -0.707107
vn -0.555573 0.000000 -0.831468
vn -0.707107 0.000000 -0.707107
vn -0.555573 0.000000 -0.831468
vn -0.555573 0.000000 -0.831468
vn -0.555573 0.000000 -0.831468
vn -0.555573 0.000000 -0.831468
vn -0.382682 0.000000 -0.923880
vn -0.555573 0.000000 -0.831468
vn -0.382682 0.000000 -0.923880
vn -0.382682 0.000000 -0.923880
vn -0.382682 0.000000 -0.923880
vn -0.382682 0.000000 -0.923880
vn -0.195077 0.000000 -0.980788
vn -0.382682 0.000000 -0.923880
vn -0.195077 0.000000 -0.980788
vn -0.195077 0.000000 -0.980788
vn 0.000000 0.000000 -1.000000
vn 0.000000 0.000000 -1.000000
vn -0.195077 0.000000 -0.980788
vn 0.000000 0.000000 -1.000000
vn -0.195077 0.000000 -0.980788
vn -0.195077 0.000000 -0.980788
s off
g Mesh
usemtl initialShadingGroup
f 1/1/1 33/2/2 34/3/3
f 1/1/4 34/3/5 2/4/6
f 2/4/7 34/3/8 35/5/9
f 2/4/10 35/5/11 3/6/12
f 3/6/13 35/5/14 36/7/15
f 3/6/16 36/7/17 4/8/18
f 4/8/19 36/7/20 37/9/21
f 4/8/22 37/9/23 5/10/24
f 5/10/25 37/9/26 38/11/27
f 5/10/28 38/11/29 6/12/30
f 6/12/31 38/11/32 39/13/33
f 6/12/34 39/13/35 7/14/36
f 7/14/37 39/13/38 40/15/39
f 7/14/40 40/15/41 8/16/42
f 8/16/43 40/15/44 41/17/45
f 8/16/46 41/17/47 9/18/48
f 9/18/49 41/17/50 42/19/51
f 9/18/52 42/19/53 10/20/54
f 10/20/55 42/19/56 43/21/57
f 10/20/58 43/21/59 11/22/60
f 11/22/61 43/21/62 44/23/63
f 11/22/64 44/23/65 12/24/66
f 12/24/67 44/23/68 45/25/69
f 12/24/70 45/25/71 13/26/72
f 13/26/73 45/25/74 46/27/75
f 13/26/76 46/27/77 14/28/78
f 14/28/79 46/27/80 47/29/81
f 14/28/82 47/29/83 15/30/84
f 15/30/85 47/29/86 48/31/87
f 15/30/88 48/31/89 16/32/90
f 16/32/91 48/31/92 49/33/93
f 16/32/94 49/33/95 17/34/96
f 17/34/97 49/33/98 50/35/99
f 17/34/100 50/35/101 18/36/102
f 18/36/103 50/35/104 51/37/105
f 18/36/106 51/37/107 19/38/108
f 19/38/109 51/37/110 52/39/111
f 19/38/112 52/39/113 20/40/114
f 20/40/115 52/39/116 53/41/117
f 20/40/118 53/41/119 21/42/120
f 21/42/121 53/41/122 54/43/123
f 21/42/124 54/43/125 22/44/126
f 22/44/127 54/43/128 55/45/129
f 22/44/130 55/45/131 23/46/132
f 23/46/133 55/45/134 56/47/135
f 23/46/136 56/47/137 24/48/138
f 24/48/139 56/47/140 57/49/141
f 24/48/142 57/49/143 25/50/144
f 25/50/145 57/49/146 58/51/147
f 25/50/148 58/51/149 26/52/150
f 26/52/151 58/51/152 59/53/153
f 26/52/154 59/53/155 27/54/156
f 27/54/157 59/53/158 60/55/159
f 27/54/160 60/55/161 28/56/162
f 28/56/163 60/55/164 61/57/165
f 28/56/166 61/57/167 29/58/168
f 29/58/169 61/57/170 62/59/171
f 29/58/172 62/59/173 30/60/174
f 30/60/175 62/59/176 63/61/177
f 30/60/178 63/61/179 31/62/180
f 31/62/181 63/61/182 64/63/183
f 31/62/184 64/63/185 32/64/186
f 33/2/187 1/1/188 32/65/189
f 33/2/190 32/65/191 64/66/192
